# xmcd CD database file
#
# Track frame offsets:
#	150
#	28664
#	53943
#	77349
#	103847
#	136577
#	164736
#	194694
#	223643
#
# Disc length: 3503 seconds
#
# Revision: 0
# Processed by: cddbd v1.5.1PL2 Copyright (c) Steve Scherf et al.
# Submitted via: CDex 1.60beta1-cs1
#
DISCID=7c0dad09
DTITLE=Kevin Kendle - Aerial Vistas
DYEAR=1996
DGENRE=New Age
TTITLE0=Ascent
TTITLE1=Over Fields
TTITLE2=Sunshine Valley
TTITLE3=Woodland Drifting
TTITLE4=Rising Thermal
TTITLE5=The Summit Below
TTITLE6=Above The Clouds
TTITLE7=Ever Upwards
TTITLE8=The Realms Beyond
EXTD=YEAR: 1996
EXTT0=
EXTT1=
EXTT2=
EXTT3=
EXTT4=
EXTT5=
EXTT6=
EXTT7=
EXTT8=
PLAYORDER=
